HIERARCHY
ROOT hip
{
  OFFSET -152.515 92.2133 5.53917
  CHANNELS 6 Xposition Yposition Zposition Zrotation Xrotation Yrotation
  JOINT abdomen
  {
    OFFSET 0 20.6881 -0.73152
    CHANNELS 3 Zrotation Xrotation Yrotation
    JOINT chest
    {
      OFFSET 0 11.7043 -0.48768
      CHANNELS 3 Zrotation Xrotation Yrotation
      JOINT neck
      {
        OFFSET 0 22.1894 -2.19456
        CHANNELS 3 Zrotation Xrotation Yrotation
        JOINT head
        {
          OFFSET -0.24384 7.07133 1.2192
          CHANNELS 3 Zrotation Xrotation Yrotation
          JOINT leftEye
          {
            OFFSET 4.14528 8.04674 8.04672
            CHANNELS 3 Zrotation Xrotation Yrotation
            End Site
            {
              OFFSET 1 0 0
            }
          }
          JOINT rightEye
          {
            OFFSET -3.6576 8.04674 8.04672
            CHANNELS 3 Zrotation Xrotation Yrotation
            End Site
            {
              OFFSET 1 0 0
            }
          }
        }
      }
      JOINT rCollar
      {
        OFFSET -2.68224 19.2634 -4.8768
        CHANNELS 3 Zrotation Xrotation Yrotation
        JOINT rShldr
        {
          OFFSET -8.77824 -1.95073 1.46304
          CHANNELS 3 Zrotation Xrotation Yrotation
          JOINT rForeArm
          {
            OFFSET -28.1742 -1.7115 0.48768
            CHANNELS 3 Zrotation Xrotation Yrotation
            JOINT rHand
            {
              OFFSET -22.5879 0.773209 7.07136
              CHANNELS 3 Zrotation Xrotation Yrotation
              JOINT rThumb1
              {
                OFFSET -1.2192 -0.487915 3.41376
                CHANNELS 3 Zrotation Xrotation Yrotation
                JOINT rThumb2
                {
                  OFFSET -3.37035 -0.52449 3.41376
                  CHANNELS 3 Zrotation Xrotation Yrotation
                  End Site
                  {
                    OFFSET -1.78271 -1.18214 1.43049
                  }
                }
              }
              JOINT rIndex1
              {
                OFFSET -7.75947 0.938293 5.60832
                CHANNELS 3 Zrotation Xrotation Yrotation
                JOINT rIndex2
                {
                  OFFSET -2.54057 -0.884171 1.56538
                  CHANNELS 3 Zrotation Xrotation Yrotation
                  End Site
                  {
                    OFFSET -1.62519 -0.234802 1.16502
                  }
                }
              }
              JOINT rMid1
              {
                OFFSET -8.24714 1.18213 3.41376
                CHANNELS 3 Zrotation Xrotation Yrotation
                JOINT rMid2
                {
                  OFFSET -3.10165 -0.590103 1.0647
                  CHANNELS 3 Zrotation Xrotation Yrotation
                  End Site
                  {
                    OFFSET -2.48547 -0.328903 0.83742
                  }
                }
              }
              JOINT rRing1
              {
                OFFSET -8.82822 0.546677 1.51678
                CHANNELS 3 Zrotation Xrotation Yrotation
                JOINT rRing2
                {
                  OFFSET -2.60934 -0.819778 -0.0198488
                  CHANNELS 3 Zrotation Xrotation Yrotation
                  End Site
                  {
                    OFFSET -2.33842 -0.294052 0.168128
                  }
                }
              }
              JOINT rPinky1
              {
                OFFSET -8.27202 -0.0477905 -0.4584
                CHANNELS 3 Zrotation Xrotation Yrotation
                JOINT rPinky2
                {
                  OFFSET -1.82734 -0.647385 -0.700984
                  CHANNELS 3 Zrotation Xrotation Yrotation
                  End Site
                  {
                    OFFSET -1.69225 -0.51767 -0.607171
                  }
                }
              }
            }
          }
        }
      }
      JOINT lCollar
      {
        OFFSET 2.68224 19.2634 -4.8768
        CHANNELS 3 Zrotation Xrotation Yrotation
        JOINT lShldr
        {
          OFFSET 8.77824 -1.95073 1.46304
          CHANNELS 3 Zrotation Xrotation Yrotation
          JOINT lForeArm
          {
            OFFSET 28.1742 -1.7115 0.48768
            CHANNELS 3 Zrotation Xrotation Yrotation
            JOINT lHand
            {
              OFFSET 22.5879 0.773209 7.07136
              CHANNELS 3 Zrotation Xrotation Yrotation
              JOINT lThumb1
              {
                OFFSET 1.2192 -0.487915 3.41376
                CHANNELS 3 Zrotation Xrotation Yrotation
                JOINT lThumb2
                {
                  OFFSET 3.37035 -0.52449 3.41376
                  CHANNELS 3 Zrotation Xrotation Yrotation
                  End Site
                  {
                    OFFSET 1.78271 -1.18214 1.43049
                  }
                }
              }
              JOINT lIndex1
              {
                OFFSET 7.75947 0.938293 5.60832
                CHANNELS 3 Zrotation Xrotation Yrotation
                JOINT lIndex2
                {
                  OFFSET 2.54057 -0.884171 1.56538
                  CHANNELS 3 Zrotation Xrotation Yrotation
                  End Site
                  {
                    OFFSET 1.62519 -0.234802 1.16502
                  }
                }
              }
              JOINT lMid1
              {
                OFFSET 8.24714 1.18213 3.41376
                CHANNELS 3 Zrotation Xrotation Yrotation
                JOINT lMid2
                {
                  OFFSET 3.10165 -0.590103 1.0647
                  CHANNELS 3 Zrotation Xrotation Yrotation
                  End Site
                  {
                    OFFSET 2.48547 -0.328903 0.83742
                  }
                }
              }
              JOINT lRing1
              {
                OFFSET 8.82822 0.546677 1.51678
                CHANNELS 3 Zrotation Xrotation Yrotation
                JOINT lRing2
                {
                  OFFSET 2.60934 -0.819778 -0.0198488
                  CHANNELS 3 Zrotation Xrotation Yrotation
                  End Site
                  {
                    OFFSET 2.33842 -0.294052 0.168128
                  }
                }
              }
              JOINT lPinky1
              {
                OFFSET 8.27202 -0.0477905 -0.4584
                CHANNELS 3 Zrotation Xrotation Yrotation
                JOINT lPinky2
                {
                  OFFSET 1.82734 -0.647385 -0.700984
                  CHANNELS 3 Zrotation Xrotation Yrotation
                  End Site
                  {
                    OFFSET 1.69225 -0.51767 -0.607171
                  }
                }
              }
            }
          }
        }
      }
    }
  }
  JOINT rButtock
  {
    OFFSET -8.77824 4.35084 1.2192
    CHANNELS 3 Zrotation Xrotation Yrotation
    JOINT rThigh
    {
      OFFSET 0 -1.70687 -2.19456
      CHANNELS 3 Zrotation Xrotation Yrotation
      JOINT rShin
      {
        OFFSET 0 -36.8199 0.73152
        CHANNELS 3 Zrotation Xrotation Yrotation
        JOINT rFoot
        {
          OFFSET 0.73152 -45.1104 -5.12064
          CHANNELS 3 Zrotation Xrotation Yrotation
          End Site
          {
            OFFSET -1.1221 -3.69964 12.103
          }
        }
      }
    }
  }
  JOINT lButtock
  {
    OFFSET 8.77824 4.35084 1.2192
    CHANNELS 3 Zrotation Xrotation Yrotation
    JOINT lThigh
    {
      OFFSET 0 -1.70687 -2.19456
      CHANNELS 3 Zrotation Xrotation Yrotation
      JOINT lShin
      {
        OFFSET 0 -36.8199 0.73152
        CHANNELS 3 Zrotation Xrotation Yrotation
        JOINT lFoot
        {
          OFFSET -0.73152 -45.1104 -5.12064
          CHANNELS 3 Zrotation Xrotation Yrotation
          End Site
          {
            OFFSET 1.1221 -3.69964 12.103
          }
        }
      }
    }
  }
}
MOTION
Frames:	8
Frame Time:	0.00833333
7.60102 94.1214 10.1964 13.0056 -4.7673 -91.5588 -7.34971 -3.33643 -4.67816 -0.699709 -16.2709 -1.83188 8.61223 -0.194824 5.12563 -12.6493 10.3751 7.71039 -0 0 0 -0 0 0 1.46435e-014 -3.99511e-013 -2.08926e-014 98.5368 30.1479 -54.3906 -16.1204 -8.79541 29.938 -0.158568 -11.2365 -1.60016 3.83036e-010 1.25344e-010 1.64712e-010 6.6414e-010 2.14841e-010 2.8861e-010 3.8304e-010 1.25348e-010 1.6471e-010 7.73091 5.47488 0.417314 3.83031e-010 1.25343e-010 1.64726e-010 2.90554 0.965183 0.102902 3.8304e-010 1.2535e-010 1.64718e-010 10.2786 0.731801 0.0259123 3.83031e-010 1.2535e-010 1.64733e-010 2.22167 -0.733487 -0.20892 1.45135e-014 -3.99491e-013 -2.09939e-014 -50.8315 62.4628 -18.825 26.0274 -46.0567 -95.9365 -0.0146896 0.551722 -0.0778132 -1.70724e-010 1.02357e-010 -2.77306e-010 -2.8818e-010 1.80239e-010 -4.78685e-010 -1.70726e-010 1.02356e-010 -2.77301e-010 -7.73091 5.47488 -0.417314 -1.70712e-010 1.02375e-010 -2.77328e-010 -2.90554 0.965183 -0.102902 -1.70728e-010 1.02356e-010 -2.77306e-010 -10.2786 0.731801 -0.0259123 -1.70717e-010 1.02357e-010 -2.77318e-010 -2.22167 -0.733487 0.20892 -2.03217e-016 0 -3.88251e-019 7.08422 -32.5259 17.2073 0.0532509 10.9791 0.865266 -4.43939 -20.0724 -18.464 2.03217e-016 0 3.88251e-019 -14.8551 -2.84244 -3.31792 -0.0287718 27.6157 -0.624848 -0.0894856 3.99419 31.1273 
2.55815 93.4479 10.0105 12.4633 -4.76355 -90.6683 -7.6331 -3.40815 -4.85917 -1.24695 -15.8132 -1.94046 8.78312 -0.72232 5.24927 -13.2041 10.6066 7.95339 -0 0 0 -0 0 0 4.72884e-014 -5.1411e-013 1.37845e-014 99.3507 30.8674 -54.1477 -16.2136 -8.87799 30.1486 -0.157951 -11.2165 -1.59724 1.35652e-009 9.06608e-010 -4.25251e-010 2.35098e-009 1.56524e-009 -7.27815e-010 1.35652e-009 9.06612e-010 -4.25257e-010 7.73091 5.47488 0.417314 1.35651e-009 9.0661e-010 -4.25242e-010 2.90554 0.965183 0.102902 1.35652e-009 9.06614e-010 -4.25246e-010 10.2786 0.731801 0.0259123 1.35652e-009 9.06614e-010 -4.25235e-010 2.22167 -0.733487 -0.20892 4.71622e-014 -5.14101e-013 1.36696e-014 -53.7691 64.2898 -15.65 25.9426 -46.1001 -96.236 -0.0141385 -2.30837 0.323851 5.88722e-010 2.30712e-009 -1.69797e-009 1.02834e-009 3.99516e-009 -2.93297e-009 5.8872e-010 2.30712e-009 -1.69797e-009 -7.73091 5.47488 -0.417314 5.8873e-010 2.30713e-009 -1.69798e-009 -2.90554 0.965183 -0.102902 5.88719e-010 2.30712e-009 -1.69797e-009 -10.2786 0.731801 -0.0259123 5.88727e-010 2.30712e-009 -1.69798e-009 -2.22167 -0.733487 0.20892 -2.03217e-016 0 -3.88251e-019 6.17275 -30.1035 17.7197 0.0456189 10.3797 0.725391 -3.64788 -16.8782 -18.7826 2.03217e-016 0 3.88251e-019 -14.3798 -3.9649 -0.636627 0.06104 33.8224 -0.840793 0.925696 3.71081 29.2895 
-2.51405 92.4426 9.83601 11.8496 -4.67394 -90.3146 -7.14121 -3.13254 -4.79057 -1.84043 -15.5166 -1.96845 8.73995 -1.22433 5.27706 -13.7035 10.5915 8.0439 -0 0 0 -0 0 0 7.7193e-014 -5.67646e-013 4.6365e-014 99.8573 31.8657 -53.3267 -16.4054 -9.06027 30.5571 -0.152674 -11.0517 -1.57306 2.24463e-009 1.6381e-009 -1.00418e-009 3.89002e-009 2.82986e-009 -1.72566e-009 2.24463e-009 1.63811e-009 -1.00419e-009 7.73091 5.47488 0.417314 2.24462e-009 1.63811e-009 -1.00418e-009 2.90554 0.965183 0.102902 2.24463e-009 1.63811e-009 -1.00418e-009 10.2786 0.731801 0.0259123 2.24462e-009 1.63811e-009 -1.00417e-009 2.22167 -0.733487 -0.20892 7.70721e-014 -5.67648e-013 4.62318e-014 -58.4082 65.6943 -10.8738 26.0578 -45.9049 -95.7668 0.0207293 -4.88997 0.688449 1.31412e-009 4.37164e-009 -3.03381e-009 2.28546e-009 7.56736e-009 -5.24088e-009 1.31412e-009 4.37165e-009 -3.0338e-009 -7.73091 5.47488 -0.417314 1.31412e-009 4.37164e-009 -3.03381e-009 -2.90554 0.965183 -0.102902 1.31412e-009 4.37165e-009 -3.0338e-009 -10.2786 0.731801 -0.0259123 1.31412e-009 4.37165e-009 -3.03382e-009 -2.22167 -0.733487 0.20892 -2.03217e-016 0 -3.88251e-019 5.99643 -28.1531 17.8477 0.0372704 11.4413 0.586892 -2.81155 -13.7864 -18.8572 2.03217e-016 0 3.88251e-019 -13.2766 -5.52054 1.85589 0.209976 40.4645 -1.10506 2.16603 2.64473 26.4789 
-7.47939 91.1261 9.4657 11.3393 -4.86773 -91.0284 -5.15295 -2.50882 -4.28554 -2.45695 -15.5208 -1.85899 8.39249 -1.55759 5.19122 -14.2246 10.164 7.96076 -0 0 0 -0 0 0 8.83195e-014 -4.31905e-013 6.20705e-014 99.6208 33.0626 -51.6875 -16.7021 -9.35623 31.1692 -0.146878 -10.8603 -1.54504 2.72346e-009 2.06073e-009 -1.3582e-009 4.72006e-009 3.56102e-009 -2.33642e-009 2.72346e-009 2.06074e-009 -1.35821e-009 7.73091 5.47488 0.417314 2.72345e-009 2.06074e-009 -1.3582e-009 2.90554 0.965183 0.102902 2.72346e-009 2.06074e-009 -1.35819e-009 10.2786 0.731801 0.0259123 2.72346e-009 2.06074e-009 -1.35819e-009 2.22167 -0.733487 -0.20892 8.82072e-014 -4.31914e-013 6.19214e-014 -64.7631 66.1433 -4.4098 26.4142 -45.4244 -94.3372 0.0434502 -5.93863 0.837651 1.73057e-009 5.46137e-009 -3.78301e-009 3.00634e-009 9.45275e-009 -6.53586e-009 1.73057e-009 5.46138e-009 -3.78301e-009 -7.73091 5.47488 -0.417314 1.73057e-009 5.46137e-009 -3.78301e-009 -2.90554 0.965183 -0.102902 1.73057e-009 5.46138e-009 -3.78301e-009 -10.2786 0.731801 -0.0259123 1.73057e-009 5.46138e-009 -3.78302e-009 -2.22167 -0.733487 0.20892 -2.03217e-016 0 -3.88251e-019 7.24248 -26.9733 17.5177 0.0123068 13.7016 0.456691 -2.17923 -12.091 -17.9204 2.03217e-016 0 3.88251e-019 -11.0283 -8.0369 3.87147 0.389955 46.7964 -1.38499 3.07129 1.28226 23.9769 
-12.129 89.4554 9.09426 10.9344 -4.51567 -93.8923 -0.550676 -1.31182 -3.14161 -3.26232 -15.9637 -1.56365 7.5745 -1.60729 4.95225 -14.8602 9.06448 7.65852 -0 0 0 -0 0 0 7.2203e-014 1.63158e-013 4.81171e-014 98.4035 34.5334 -48.8665 -16.9446 -9.55364 31.8389 -0.138225 -10.5485 -1.4996 2.62528e-009 2.09685e-009 -1.47726e-009 4.55159e-009 3.62505e-009 -2.54351e-009 2.62528e-009 2.09686e-009 -1.47727e-009 7.73091 5.47488 0.417314 2.62528e-009 2.09686e-009 -1.47726e-009 2.90554 0.965183 0.102902 2.62529e-009 2.09686e-009 -1.47726e-009 10.2786 0.731801 0.0259123 2.62529e-009 2.09685e-009 -1.47725e-009 2.22167 -0.733487 -0.20892 7.21028e-014 1.63148e-013 4.79533e-014 -72.2877 65.1566 3.14371 27.1156 -44.3061 -91.2737 0.00906127 -4.4879 0.631427 1.67369e-009 5.09771e-009 -3.57456e-009 2.90535e-009 8.82314e-009 -6.17733e-009 1.67369e-009 5.09772e-009 -3.57456e-009 -7.73091 5.47488 -0.417314 1.67369e-009 5.0977e-009 -3.57456e-009 -2.90554 0.965183 -0.102902 1.67369e-009 5.09772e-009 -3.57456e-009 -10.2786 0.731801 -0.0259123 1.67369e-009 5.09772e-009 -3.57457e-009 -2.22167 -0.733487 0.20892 -2.03217e-016 0 -3.88251e-019 11.0514 -27.1567 16.5226 -0.0494716 18.1485 0.305629 -1.79943 -12.4235 -15.2699 2.03217e-016 0 3.88251e-019 -6.76781 -11.9088 5.47415 0.596648 53.1542 -1.67884 3.50387 -0.316152 22.0631 
-16.6069 87.4442 8.71729 10.8323 -0.697901 -97.3618 5.89697 0.387529 -1.51272 -4.20226 -16.7366 -1.12144 6.38206 -1.47529 4.58101 -15.5671 7.44992 7.16983 -0 0 0 -0 0 0 3.87931e-014 1.07054e-012 1.53344e-014 96.3533 36.1733 -44.958 -17.1809 -9.71401 32.6125 -0.126535 -10.0951 -1.43377 2.14997e-009 1.88749e-009 -1.45977e-009 3.73053e-009 3.26549e-009 -2.51623e-009 2.14997e-009 1.8875e-009 -1.45978e-009 7.73091 5.47488 0.417314 2.14997e-009 1.8875e-009 -1.45977e-009 2.90554 0.965183 0.102902 2.14998e-009 1.8875e-009 -1.45977e-009 10.2786 0.731801 0.0259123 2.14998e-009 1.88749e-009 -1.45977e-009 2.22167 -0.733487 -0.20892 3.87076e-014 1.07054e-012 1.51542e-014 -79.7765 62.9057 10.6901 27.8308 -42.4417 -87.2883 -0.027325 -1.41707 0.198522 1.32045e-009 3.81111e-009 -2.75517e-009 2.28963e-009 6.59642e-009 -4.76394e-009 1.32045e-009 3.81111e-009 -2.75516e-009 -7.73091 5.47488 -0.417314 1.32045e-009 3.8111e-009 -2.75516e-009 -2.90554 0.965183 -0.102902 1.32045e-009 3.81111e-009 -2.75517e-009 -10.2786 0.731801 -0.0259123 1.32045e-009 3.81111e-009 -2.75517e-009 -2.22167 -0.733487 0.20892 -2.03217e-016 0 -3.88251e-019 16.6983 -28.3649 14.934 -0.10254 24.6583 0.13298 -1.38114 -13.9914 -11.4241 2.03217e-016 0 3.88251e-019 -0.941134 -16.7599 6.82881 0.88829 59.7569 -2.05594 3.65682 -2.42444 20.0978 
-20.1603 85.4058 7.15838 11.0801 5.4984 -96.9311 12.1139 2.14153 0.257789 -4.92551 -17.61 -0.606882 5.11734 -1.3434 4.15008 -16.2118 5.78051 6.58625 -0 0 0 -0 0 0 -3.26402e-016 1.7929e-012 -1.5636e-014 93.671 37.6255 -40.4417 -17.7017 -10.2436 33.792 -0.117701 -9.72667 -1.38046 1.52501e-009 1.50158e-009 -1.25452e-009 2.64884e-009 2.6004e-009 -2.16495e-009 1.52501e-009 1.50159e-009 -1.25452e-009 7.73091 5.47488 0.417314 1.52501e-009 1.50159e-009 -1.25452e-009 2.90554 0.965183 0.102902 1.52501e-009 1.50159e-009 -1.25452e-009 10.2786 0.731801 0.0259123 1.52502e-009 1.50158e-009 -1.25452e-009 2.22167 -0.733487 -0.20892 -3.94584e-016 1.7929e-012 -1.58294e-014 -86.3062 59.8762 17.6267 28.1806 -40.3834 -83.9398 -0.0150229 1.75816 -0.247284 9.07981e-010 2.28057e-009 -1.89958e-009 1.57148e-009 3.9476e-009 -3.28804e-009 9.07979e-010 2.28056e-009 -1.89958e-009 -7.73091 5.47488 -0.417314 9.07981e-010 2.28056e-009 -1.89958e-009 -2.90554 0.965183 -0.102902 9.07979e-010 2.28056e-009 -1.89958e-009 -10.2786 0.731801 -0.0259123 9.07989e-010 2.28057e-009 -1.89959e-009 -2.22167 -0.733487 0.20892 -2.03217e-016 0 -3.88251e-019 22.1161 -29.4901 13.1054 -0.102836 31.1008 -0.00582563 -0.787353 -15.9227 -7.42074 2.03217e-016 0 3.88251e-019 4.90055 -21.9778 7.78086 1.29025 65.6845 -2.55426 3.60622 -4.96956 17.9558 
-22.4467 84.0702 5.16641 10.9926 9.10651 -93.7665 16.1125 3.49912 1.82823 -5.09189 -18.3543 -0.0972882 4.07721 -1.39394 3.73181 -16.6352 4.52002 5.98941 -0 0 0 -0 0 0 -3.35714e-014 1.83287e-012 -2.41523e-014 90.6802 38.6096 -35.9149 -18.7398 -11.5048 35.7017 -0.116079 -9.67004 -1.37222 9.77874e-010 1.00805e-009 -8.10284e-010 1.69847e-009 1.74785e-009 -1.40003e-009 9.77881e-010 1.00805e-009 -8.10288e-010 7.73091 5.47488 0.417314 9.77876e-010 1.00805e-009 -8.10288e-010 2.90554 0.965183 0.102902 9.7788e-010 1.00805e-009 -8.10292e-010 10.2786 0.731801 0.0259123 9.77883e-010 1.00805e-009 -8.10288e-010 2.22167 -0.733487 -0.20892 -3.36201e-014 1.83287e-012 -2.43511e-014 -91.6731 56.5821 24.0096 28.2243 -39.0004 -82.1486 0.0152347 3.52165 -0.495565 6.73419e-010 1.18508e-009 -1.58258e-009 1.16323e-009 2.05171e-009 -2.74197e-009 6.73416e-010 1.18508e-009 -1.58258e-009 -7.73091 5.47488 -0.417314 6.73418e-010 1.18508e-009 -1.58258e-009 -2.90554 0.965183 -0.102902 6.73416e-010 1.18508e-009 -1.58258e-009 -10.2786 0.731801 -0.0259123 6.73428e-010 1.18508e-009 -1.58259e-009 -2.22167 -0.733487 0.20892 -2.03217e-016 0 -3.88251e-019 25.4029 -29.4121 11.4541 -0.0593966 35.3456 -0.0331938 -0.208891 -17.3426 -4.35761 2.03217e-016 0 3.88251e-019 9.06709 -26.9713 8.10119 1.75945 70.0172 -3.13898 3.41034 -7.87642 15.5002 
